<svg width="166" height="30" viewBox="0 0 166 30" fill="none" xmlns="http://www.w3.org/2000/svg">
<path d="M2.079 19V4.3H9.24C10.962 4.3 12.208 4.657 12.978 5.371C13.762 6.085 14.154 7.226 14.154 8.794C14.154 10.362 13.762 11.503 12.978 12.217C12.208 12.931 10.962 13.288 9.24 13.288H3.528V19H2.079ZM9.177 5.665H3.528V11.902H9.177C10.409 11.902 11.305 11.657 11.865 11.167C12.425 10.677 12.705 9.886 12.705 8.794C12.705 7.702 12.425 6.911 11.865 6.421C11.305 5.917 10.409 5.665 9.177 5.665ZM16.0668 19H14.5128L21.5058 4.3H23.2278L30.2208 19H28.6668L26.9658 15.43H17.7468L16.0668 19ZM22.3668 5.749L18.4188 14.065L26.3148 14.044L22.3668 5.749ZM31.3815 15.073H32.8935C33.1735 16.011 33.7265 16.697 34.5525 17.131C35.3785 17.551 36.5545 17.761 38.0805 17.761C41.1745 17.761 42.7215 16.893 42.7215 15.157C42.7215 14.345 42.3365 13.715 41.5665 13.267C40.8105 12.819 39.4665 12.448 37.5345 12.154C35.3225 11.804 33.7755 11.335 32.8935 10.747C32.0255 10.159 31.5915 9.291 31.5915 8.143C31.5915 5.497 33.5935 4.174 37.5975 4.174C39.5155 4.174 40.9785 4.496 41.9865 5.14C42.9945 5.77 43.6315 6.799 43.8975 8.227H42.3855C42.1335 7.289 41.6155 6.61 40.8315 6.19C40.0475 5.756 38.9345 5.539 37.4925 5.539C34.5105 5.539 33.0195 6.372 33.0195 8.038C33.0195 8.78 33.3765 9.354 34.0905 9.76C34.8045 10.152 36.0575 10.488 37.8495 10.768C40.2155 11.174 41.8535 11.685 42.7635 12.301C43.6875 12.917 44.1495 13.827 44.1495 15.031C44.1495 17.775 42.0705 19.147 37.9125 19.147C35.9385 19.147 34.4335 18.825 33.3975 18.181C32.3615 17.537 31.6895 16.501 31.3815 15.073ZM46.6057 11.65C46.6057 9.018 47.2007 7.114 48.3907 5.938C49.5807 4.748 51.4847 4.153 54.1027 4.153C56.2167 4.153 57.8547 4.538 59.0167 5.308C60.1927 6.078 60.9557 7.282 61.3057 8.92H59.8147C59.4647 7.758 58.8207 6.904 57.8827 6.358C56.9587 5.812 55.6987 5.539 54.1027 5.539C51.9887 5.539 50.4487 6.022 49.4827 6.988C48.5307 7.954 48.0547 9.508 48.0547 11.65C48.0547 13.792 48.5307 15.346 49.4827 16.312C50.4487 17.278 51.9887 17.761 54.1027 17.761C55.6987 17.761 56.9587 17.488 57.8827 16.942C58.8207 16.382 59.4647 15.514 59.8147 14.338H61.3267C60.9627 16.004 60.1927 17.222 59.0167 17.992C57.8547 18.762 56.2167 19.147 54.1027 19.147C51.4847 19.147 49.5807 18.552 48.3907 17.362C47.2007 16.172 46.6057 14.268 46.6057 11.65ZM64.3627 19H62.8087L69.8017 4.3H71.5237L78.5167 19H76.9627L75.2617 15.43H66.0427L64.3627 19ZM70.6627 5.749L66.7147 14.065L74.6107 14.044L70.6627 5.749ZM81.1776 19V4.3H82.6266V17.635H92.5386V19H81.1776ZM107.021 19L100.133 4.3H101.687L107.882 17.551L114.056 4.3H115.61L108.743 19H107.021ZM130.183 19H118.276V4.3H130.183V5.665H119.725V10.999H129.133V12.301H119.725V17.635H130.183V19ZM133.821 4.3H135.27L146.19 16.9V4.3H147.639V19H146.19L135.27 6.4V19H133.821V4.3ZM165.079 5.665H158.464V19H157.015V5.665H150.4V4.3H165.079V5.665Z" fill="#78C081"/>
<rect y="29" width="166" height="1" rx="0.5" fill="#78C081"/>
</svg>
