<svg width="1481" height="127" viewBox="0 0 1481 127" fill="none" xmlns="http://www.w3.org/2000/svg">
<path d="M1 48C13.8193 55.7505 56.6079 74.158 125.208 85.7837C210.959 100.316 255.133 85.2024 278 82.296M278 82.296L267.5 77.5M278 82.296L270 90.5" stroke="#78C081" stroke-width="2" stroke-linecap="round" stroke-linejoin="round"/>
<path d="M795 93.4955C822 107.674 865 124.941 927.5 125.937C1021.5 127.434 1057.5 101.98 1077 92.7927M1077 92.7927L1066.5 91M1077 92.7927L1071 101.98" stroke="#78C081" stroke-width="2" stroke-linecap="round" stroke-linejoin="round"/>
<path d="M395.5 77.5025C419 66.5016 458.5 48.5029 526.208 44.5022C605 39.8465 635 59.0014 679 76.0015M679 76.0015L673.5 67.4999M679 76.0015L669 79.9999" stroke="#78C081" stroke-width="2" stroke-linecap="round" stroke-linejoin="round"/>
<path d="M1193 59C1211 45.7908 1256.5 23.501 1327 10.4997C1352.87 5.72899 1418.5 -1.49822 1480 9.50135M1480 9.50135L1474.5 1M1480 9.50135L1470 13.4996" stroke="#78C081" stroke-width="2" stroke-linecap="round" stroke-linejoin="round"/>
</svg>
