<svg width="1440" height="248" viewBox="0 0 1440 248" fill="none" xmlns="http://www.w3.org/2000/svg">
<rect width="1440" height="248" fill="#D9FADD"/>
<g clip-path="url(#clip0_46_9)">
<path d="M1304.41 204.255C1304.25 204.197 1304.1 204.127 1303.96 204.044L1301.11 203.856C1300.9 203.448 1300.73 203.138 1300.63 202.88C1300.24 214.189 1301.3 240.208 1283.69 239.324C1283.85 240.155 1284.02 240.986 1284.15 241.817C1302.02 239.415 1305.58 218.74 1305.48 204.141C1305.33 204.25 1305.15 204.318 1304.96 204.338C1304.77 204.358 1304.58 204.329 1304.41 204.255Z" fill="#EDFFEF"/>
<path d="M1281.41 44.8314L1281.85 45.488C1281.71 45.2756 1281.56 45.0567 1281.41 44.8314Z" fill="#EDFFEF"/>
<path d="M1239.5 219.782C1239.2 219.204 1238.93 218.611 1238.68 218.004C1237.76 216.206 1236.74 214.147 1235.85 211.909C1236.65 215.233 1237.97 218.347 1240.02 220.832C1239.82 220.497 1239.64 220.146 1239.5 219.782Z" fill="#EDFFEF"/>
<path d="M1340.95 92.4808L1340.88 92.7146L1340.98 92.4947L1340.95 92.4808Z" fill="#EDFFEF"/>
<path d="M1255.29 232.38C1255.26 232.369 1255.29 232.38 1255.29 232.38V232.38Z" fill="#EDFFEF"/>
<path d="M1313.45 8.55145C1313.22 8.967 1312.92 9.38255 1312.69 9.78978C1315.03 10.474 1316.7 11.3412 1318.76 12.5213C1316.68 11.6368 1314.54 10.9215 1312.35 10.3826C1311.24 12.2914 1306.2 11.8038 1306.74 9.34099C1289.19 7.08042 1251.01 11.3384 1247.83 33.8388C1247.5 31.8996 1253.88 14.865 1254.62 15.8124C1253.37 14.2167 1249.45 19.5385 1249.07 20.4915C1249.3 20.3862 1249.53 20.2809 1249.77 20.1923C1249.53 20.2809 1249.3 20.3862 1249.07 20.4943C1246.76 26.0349 1246.54 31.3373 1247.25 37.1605C1247.37 38.1495 1250.32 49.9731 1250.68 49.4357C1256.48 61.7691 1269.47 73.5762 1280.76 83.2501C1280.76 83.1642 1280.76 83.0783 1280.76 82.9952C1282.18 82.9204 1282.99 83.8928 1283.96 84.5632C1284.68 84.1615 1285.33 84.1671 1285.91 84.5826C1286.38 85.5938 1283.95 85.5495 1283.63 85.2586H1283.11C1287.95 89.3808 1295.79 94.1845 1298.86 99.9191C1301.29 104.446 1299.94 109.197 1303.61 113.441C1300.29 114.902 1297.6 117.499 1296.03 120.763L1297.89 121.663C1298.26 122.295 1298.63 122.928 1299 123.564C1297.96 123.744 1297.33 124.251 1297.36 125.273C1299.98 128.453 1292.46 132.506 1291.07 125.065C1279.68 125.821 1267.07 129.102 1258.09 136.423C1260.03 137.036 1257.45 137.532 1256.93 137.476C1255.36 138.933 1252.54 141.177 1251.65 142.294C1253.04 140.515 1254.43 138.485 1256.11 136.969C1255.95 136.563 1256.23 136.302 1256.97 136.188C1266.79 126.991 1278.1 124.957 1291.04 124.957C1290.82 123.789 1290.35 122.681 1289.67 121.708C1282.98 121.663 1276.19 123.093 1269.64 125.766C1269.76 126.224 1269.73 126.705 1269.58 127.151C1269.05 128.705 1267.99 126.896 1267.86 126.522C1251.63 133.75 1237.08 148.524 1229.5 166.955C1230.3 166.678 1231.1 166.498 1231.73 166.304C1235.07 167.335 1230.54 170.141 1228.66 169.091C1228.11 170.587 1227.59 172.103 1227.11 173.64C1227.31 173.454 1227.61 173.74 1227.73 173.917C1227.51 174.008 1227.26 174.02 1227.02 173.953C1225.21 180.02 1223.89 186.577 1224.32 192.943C1223.8 190.661 1224.4 168.191 1225.68 168.77C1221.59 166.905 1222.03 186.389 1222 186.156C1223.54 198.947 1229.38 211.809 1238.87 220.599C1224.4 206.848 1224.22 179.679 1235.33 163.883C1229.39 172.365 1227.66 188.453 1230.19 199.019C1230.09 192.37 1231.26 183.372 1234.2 177.358C1232.23 181.374 1232.34 190.312 1232.03 195.295C1232.29 195.063 1232.6 194.901 1232.94 194.824C1233.27 194.747 1233.63 194.759 1233.96 194.858C1235.05 187.874 1236.92 180.07 1239.79 173.571C1237.52 178.679 1235.81 189.134 1235.27 195.326C1236.48 196.159 1236.4 197.062 1235.02 198.035C1234.65 202.296 1234.74 207.305 1235.86 211.914C1236.76 214.147 1237.76 216.206 1238.69 218.009C1234.61 207.969 1236.72 194.315 1240.99 184.851C1238.05 191.381 1236.8 211.482 1239.27 219.126C1239.73 219.998 1240.15 220.788 1240.51 221.505C1240.32 221.301 1240.16 221.077 1240.02 220.838C1237.98 218.344 1236.66 215.239 1235.85 211.914C1234.21 207.85 1232.93 203.213 1233.2 198.55C1232.77 198.442 1232.38 198.21 1232.08 197.883C1232.56 208.634 1233.54 216.599 1242.73 223.924C1234.56 212.629 1241.31 189.805 1246.72 178.449C1241.82 188.785 1235.64 218.713 1246.59 227.392C1241.43 217.308 1242.49 201.429 1247.7 191.359C1247.77 191.209 1247.85 191.065 1247.93 190.924C1247.85 191.065 1247.78 191.215 1247.7 191.359C1243.73 199.379 1243.57 218.175 1246.48 226.713C1248.22 227.941 1249.99 229.09 1251.76 230.165C1243.3 221.095 1247.67 197.98 1251.61 187.331C1251.66 187.185 1251.72 187.043 1251.77 186.907L1251.61 187.331C1248.33 196.448 1245.16 226.669 1255.03 232.235C1248.09 223.156 1250.59 206.748 1253.83 196.559C1251.38 204.249 1250.39 224.838 1255.28 232.368C1255.47 232.398 1258.95 233.686 1256.9 233.091C1257.81 233.573 1258.71 234.033 1259.6 234.476C1258.68 233.378 1257.99 232.106 1257.58 230.736C1256.75 231.193 1256.19 229.5 1257.16 229.124C1254.5 217.272 1254.86 202.551 1258.24 190.716C1258.29 190.528 1258.34 190.342 1258.39 190.162C1258.34 190.345 1258.29 190.528 1258.24 190.716C1255.66 200.152 1254.48 226.73 1260.24 234.794C1266.65 237.944 1274.54 242.122 1281.88 241.997C1281.66 241.05 1281.79 240.059 1282.23 239.194C1281.16 239.063 1273.6 237.576 1274.02 236.498C1274.15 236.135 1280.92 237.556 1282.04 237.642C1274.06 230.395 1274.49 210.923 1278.93 201.623C1275.7 208.548 1276.34 231.645 1282.16 237.637C1283.05 237.703 1283.94 237.723 1284.83 237.698C1282.57 226.738 1283.16 212.649 1286.6 201.867C1286.38 202.534 1286.81 206.108 1286.6 207.571C1287.61 207.512 1288.62 207.632 1289.59 207.925C1290.98 203.85 1290.77 195.074 1290.28 191.461C1291.06 197.171 1291.58 202.897 1291.12 208.668C1291.93 209.23 1292.59 209.972 1293.06 210.837C1293.83 208.025 1293.87 204.93 1294.73 202.149C1294.77 201.997 1294.82 201.844 1294.87 201.7C1294.82 201.85 1294.77 201.999 1294.73 202.149C1293.4 206.546 1293.62 214.458 1292.51 219.53C1291.09 225.971 1288.14 231.096 1285.51 237.077C1289.12 228.885 1290.51 219.58 1293.01 211.017C1292.37 210.773 1291.68 210.691 1291.01 210.776C1291.01 216.039 1289 221.624 1287.93 226.741C1288.93 221.807 1288.41 216.267 1289.08 211.214C1288.05 210.74 1287.31 208.72 1286.54 207.848C1285.21 216.926 1283.62 228.642 1284.87 237.706C1291.96 237.529 1297.46 228.038 1298.44 221.915C1297.64 222.056 1296.99 221.734 1296.49 220.951C1296.29 220.12 1298.33 220.428 1298.64 220.486C1299.6 211.425 1299.87 202.302 1299.42 193.201C1298.88 193.442 1298.36 193.716 1297.81 193.93C1298.37 193.716 1298.88 193.442 1299.42 193.201C1298.28 179.045 1301.04 160.4 1292.45 148.195C1291.7 148.317 1291 148.613 1290.39 149.059C1290.52 150.562 1291.13 151.649 1292.24 152.319C1291.13 151.649 1290.51 150.562 1290.39 149.059L1285.71 149.89C1285.5 150.595 1285.44 151.334 1285.54 152.063C1285.63 152.791 1285.87 153.493 1286.24 154.126C1288.3 153.829 1289.96 153.148 1291.85 152.286C1285.7 155.079 1275.54 160.63 1272.01 165.769C1274.6 161.954 1277.9 158.673 1281.73 156.107C1281.41 156.062 1281.08 156.021 1280.75 155.985C1280.39 155.234 1280.03 154.483 1279.61 153.613L1282.65 151.209C1277.78 154.087 1270.6 156.965 1267.31 160.952C1271.48 155.871 1276.54 151.621 1282.99 149.918C1282.99 148.862 1282.57 144.502 1284.07 145.164C1285.23 145.928 1285.72 147.037 1285.56 148.488C1289.6 149.059 1289.41 145.568 1292.53 144.793C1292.61 144.826 1294.83 146.422 1294.81 146.627L1293.6 147.94C1294.78 149.564 1295.75 151.333 1296.48 153.203C1296.63 152.511 1299.22 142.222 1301.61 145.773C1299.98 143.349 1296.59 159.054 1297.8 158.085C1300.49 171.753 1301.13 187.946 1300.66 201.919C1301.89 200.567 1303.46 200.042 1305.38 200.343C1304.99 190.248 1303.44 179.879 1302.2 171.111C1301.77 171.224 1301.33 171.374 1300.88 171.512C1300.16 170.049 1300.22 168.512 1300.35 166.966C1300.77 167.565 1301.28 168.103 1301.85 168.562C1301.21 163.98 1299.49 157.445 1300.72 152.821C1301.62 149.447 1304.27 148.142 1305.4 144.898C1303.54 144.216 1294.76 138.834 1296.34 135.714C1296.02 134.794 1295.78 133.845 1295.64 132.88C1295.98 133.717 1296.39 134.522 1296.87 135.288C1297.51 135.088 1304.55 141.078 1307.06 141.355C1312.14 141.909 1317.67 139.374 1320.73 135.448C1328.28 125.752 1320.64 121.09 1316.31 113.688C1314.92 113.013 1313.43 112.557 1311.9 112.336C1314.6 111.977 1317.34 112.336 1319.85 113.376C1322.37 114.416 1324.56 116.101 1326.21 118.259C1329.85 115.424 1333.06 112.079 1335.74 108.327C1335.08 108.488 1334.44 108.73 1333.84 109.047C1333.86 108.369 1333.88 107.693 1333.9 107.014C1331.22 108.953 1328.57 111.225 1325.66 112.779C1332.28 109.161 1338.04 99.5174 1340.88 92.7163L1340.95 92.4836C1340.81 92.4262 1340.7 92.3191 1340.63 92.1829C1340.56 92.0466 1340.55 91.8909 1340.59 91.7457C1340.64 91.6005 1340.73 91.4761 1340.86 91.3964C1340.99 91.3168 1341.14 91.2876 1341.29 91.3145C1341.8 89.5058 1342.46 87.7445 1343.27 86.0509C1342.45 87.6577 1342.01 89.6357 1341.43 91.3477C1341.39 91.3304 1341.34 91.3174 1341.29 91.3089C1341.18 91.694 1341.06 92.0846 1340.95 92.478L1340.98 92.4919L1340.88 92.7107C1339.62 97.1432 1338.38 101.908 1335.12 105.856C1335.62 106.323 1336.03 106.874 1336.34 107.485C1355.83 79.4132 1350.7 20.8516 1313.45 8.55145ZM1236.77 171.05C1235.69 172.317 1234.61 172.57 1233.55 171.809C1233.18 170.435 1234.03 169.675 1236.09 169.529C1236.76 169.869 1237 170.374 1236.77 171.05ZM1296.11 192.871C1295.95 196.473 1297.99 202.166 1297.49 206.831C1296.93 211.984 1294.75 216.017 1293.48 220.959C1294.54 216.821 1294.68 212.349 1295.53 208.133C1296.56 202.831 1295.87 198.157 1296.11 192.871ZM1254.68 140.814C1258.15 139.85 1258.27 139.825 1259.4 141.781C1268.8 132.473 1280.67 131.517 1292.96 130.074C1282.19 131.359 1268.1 135.152 1259.87 142.576C1260.13 142.986 1260.39 143.391 1260.66 143.815C1259.88 144.488 1259.27 143.934 1258.81 143.571C1257.48 144.77 1254.8 146.995 1254.14 147.851C1255.38 146.244 1256.6 144.391 1258.08 142.997C1257.15 142.216 1256.25 141.344 1254.68 140.814ZM1293.87 136.443C1280.73 137.094 1263.73 143.524 1255.93 153.746C1266.02 140.515 1277.95 137.271 1293.87 136.443ZM1255.26 186.541C1255.19 187.601 1255.11 188.663 1255.03 189.727L1252.73 189.708C1252.86 188.557 1252.99 187.407 1253.13 186.259L1248.99 186.045C1248.71 182.031 1251.91 182.826 1255.02 182.834C1257.15 182.214 1257.15 182.214 1258.63 183.943C1257.97 185.546 1256.84 186.412 1255.26 186.541ZM1259.78 162.7C1258.99 161.517 1262.1 162.298 1260.62 163.01C1260.46 163.032 1260.31 163.016 1260.16 162.961C1260.01 162.907 1259.88 162.817 1259.78 162.7ZM1281.81 223.899C1281.86 224.008 1281.9 224.122 1281.93 224.24C1281.9 224.122 1281.86 224.008 1281.81 223.899ZM1281.91 223.757C1281.89 223.805 1281.88 223.852 1281.86 223.896L1281.79 223.838C1281.82 223.802 1281.87 223.774 1281.91 223.757L1282.1 223.203C1282.58 223.6 1282.16 223.641 1281.91 223.746V223.757ZM1283.02 160.298C1283.26 159.356 1284.67 158.015 1285.61 158.996C1286.69 160.104 1283.87 160.725 1283.02 160.301V160.298ZM1277.43 166.093C1277.64 165.816 1278.22 165.8 1278.45 165.728C1278.98 165.816 1282.74 165.805 1282.22 167.188C1285.67 165.068 1290.73 160.619 1293.75 157.807C1289.27 162.024 1284.98 167.576 1279.99 171.241C1279.82 171.368 1281.41 168.171 1281.76 167.659C1281.1 168.063 1275.55 168.396 1277.43 166.093ZM1271.08 195.046C1272.38 194.584 1273.82 194.649 1275.08 195.226C1275.22 194.478 1275.4 193.738 1275.62 193.01C1275.73 192.686 1275.79 195.038 1275.71 195.47C1276.79 195.945 1277.94 196.244 1279.11 196.354C1280.75 194.708 1281.15 194.196 1283.22 195.75C1283.18 194.666 1283.24 193.581 1283.42 192.511C1283.56 191.846 1283.84 196.06 1283.84 196.154L1284.64 196.351C1284.67 196.703 1284.69 197.054 1284.72 197.406L1283.94 197.464C1284 198.395 1283.88 199.334 1283.91 200.268C1284.54 200.451 1285.16 200.636 1285.8 200.783C1285.16 200.636 1284.54 200.451 1283.91 200.268C1284.23 210.607 1282.34 221.466 1283.68 231.706C1282.46 222.472 1282.37 214.153 1282.57 204.856C1282.43 205.087 1282.23 205.278 1281.99 205.41C1281.94 204.889 1281.88 204.365 1281.83 203.842C1282.14 203.947 1282.4 204.153 1282.58 204.426C1282.66 202.193 1282.79 199.758 1283.08 197.531L1281.19 197.675C1281.06 197.822 1280.93 197.971 1280.8 198.115C1278.97 198.171 1277.23 197.838 1275.52 197.39V197.428C1275.61 197.467 1275.6 197.484 1275.52 197.481C1275.3 208.59 1272.77 220.422 1275.73 231.379C1272.64 219.987 1271.89 209.033 1274.77 197.368C1272.94 197.005 1268.83 195.866 1271.08 195.046ZM1268.1 210.13C1268.32 207.329 1268.82 204.558 1269.61 201.861C1269.63 201.814 1269.64 201.767 1269.66 201.72C1269.72 201.523 1269.78 201.332 1269.85 201.146C1269.78 201.335 1269.72 201.526 1269.66 201.72C1269.64 201.767 1269.63 201.814 1269.61 201.861C1268.83 204.401 1268.44 207.377 1268.1 210.141C1267.18 220.303 1268.83 233.379 1275.28 238.482C1266.16 231.423 1266.65 223.023 1267.8 212.466C1267.9 211.709 1268 210.928 1268.1 210.13ZM1267.51 190.738C1266.15 198.714 1265.29 206.992 1265.63 215.081C1266.14 215.463 1266.6 215.87 1267.13 216.222C1266.83 216.66 1266.53 217.1 1266.23 217.541C1266.09 217.582 1265.95 217.61 1265.81 217.646C1266.37 223.929 1264.18 233.805 1271.77 236.465C1264.27 234.218 1263.75 223.09 1263.86 216.549L1263.33 216.139L1261.71 216.477C1261.77 219.829 1262.23 223.084 1262.51 226.414C1263.9 226.195 1264.24 227.273 1262.65 227.597C1263.53 231.531 1266.22 234.279 1268.08 237.698C1264.63 231.622 1260.62 228.921 1260.08 221.378C1259.63 215.109 1260.22 206.252 1261.94 200.174C1260.93 203.745 1261.59 212.086 1261.71 216.477L1263.33 216.128C1263.53 215.873 1263.7 215.663 1263.86 215.48C1263.74 207.125 1266.24 198.118 1267.51 190.73L1267.51 190.738ZM1296.71 139.922C1296.38 139.964 1296.06 140 1295.73 140.033C1282.63 141.659 1273.62 150.768 1263.96 158.594C1274.53 150.048 1279.41 142.169 1294.91 140.097C1295.19 140.077 1295.46 140.053 1295.73 140.028C1296.04 139.992 1296.36 139.953 1296.71 139.922ZM1320.27 13.2028C1320.39 13.2543 1320.51 13.3155 1320.62 13.3856C1320.47 13.3108 1320.32 13.2333 1320.17 13.1612L1320.27 13.2028ZM1327.1 37.4153C1323.79 29.1515 1312.39 15.0312 1304.25 10.2192C1314.8 16.4025 1322.46 25.816 1327.1 37.4125V37.4153ZM1307.66 13.5906L1307.58 13.6461L1307.66 13.5906ZM1311.45 22.3171C1311.91 22.2063 1312.26 22.5942 1312.52 23.0042C1314.25 23.2166 1314.91 24.2499 1314.49 26.1041C1320.82 33.379 1323.47 41.8644 1328.04 50.1227C1323.71 42.219 1318.39 34.4732 1313.48 26.9131C1312.78 27.1901 1309.33 27.6195 1308.91 26.6166C1309.08 25.3368 1309.88 24.4226 1311.3 23.874C1309.98 20.6051 1304.31 14.8428 1301.14 14.3719C1306.32 14.9592 1308.22 19.0953 1311.45 22.3171ZM1323.7 95.0516C1324.37 85.6603 1323.81 78.7761 1321.92 69.6507C1322.73 73.5623 1325.9 78.2663 1326.14 83.4551C1326.4 88.8655 1324.64 93.0709 1323.6 98.2929C1323.92 96.6141 1323.59 96.7443 1323.7 95.0516ZM1321.1 49.5631C1319.08 50.7322 1318.14 46.4548 1320.04 45.4852C1322.17 46.6007 1322.52 47.96 1321.1 49.5631ZM1320.82 66.6005C1320.21 66.908 1319.27 64.6419 1320.34 64.0546C1321.29 64.2125 1322.08 65.9911 1320.82 66.6005H1320.82ZM1325.48 67.2239C1325.49 67.2903 1325.5 67.3541 1325.52 67.4178C1325.54 67.4815 1325.58 67.62 1325.61 67.7197C1325.61 67.7364 1325.61 67.753 1325.62 67.7696C1325.92 68.6292 1326.41 69.4089 1327.05 70.0468L1327.14 70.1355C1327.16 70.3571 1327.18 70.5815 1327.2 70.8031L1327.14 70.1355L1327.05 70.0468C1326.41 69.4089 1325.92 68.6292 1325.62 67.7696C1325.62 67.753 1325.62 67.7364 1325.61 67.7197C1325.58 67.62 1325.55 67.5175 1325.52 67.4178C1325.5 67.3181 1325.49 67.2903 1325.48 67.2239C1325.47 67.1574 1325.45 67.1158 1325.44 67.0604C1325.29 66.2116 1325.29 65.3439 1325.44 64.4951C1325.29 65.3439 1325.29 66.2116 1325.44 67.0604C1325.45 67.1269 1325.47 67.1823 1325.48 67.2239ZM1327.25 96.0351L1327.28 96.0628C1326.73 97.3298 1325.97 97.7111 1325.02 97.2069C1325.03 96.1376 1325.79 95.7581 1327.25 96.0489V96.0351ZM1318.7 99.3595C1318.79 98.4924 1318.7 97.3261 1318.77 96.4479C1318.79 96.2041 1318.8 95.9658 1318.81 95.7248C1318.56 87.087 1314.99 75.3104 1310.27 70.0717C1317.18 77.7732 1319.4 85.7462 1318.81 95.7248C1318.86 96.9439 1318.82 98.1647 1318.7 99.3789V99.3595ZM1308.13 83.0146C1305.76 78.5821 1301.44 72.8975 1297.58 70.4873C1308.17 77.1 1312.91 86.3335 1314.82 98.3594C1314.07 93.226 1310.63 87.5302 1308.13 83.0146ZM1308.65 98.1849C1302.33 87.9347 1294.69 80.3524 1285.55 72.8116C1289.61 76.1359 1295.79 78.56 1299.96 83.4828C1303.78 87.9846 1305.63 93.1955 1308.65 98.1849ZM1313.65 57.7383C1312.77 57.923 1312.22 57.6321 1311.99 56.8657C1312.05 55.5387 1316.11 56.2368 1315.83 57.2674C1315.55 57.5424 1315.2 57.7322 1314.82 57.8146C1314.43 57.897 1314.03 57.8686 1313.67 57.7328L1313.65 57.7383ZM1314.31 68.5896L1313.98 68.6949L1314.04 68.3652L1314.31 68.5896ZM1313.33 65.2375C1313.05 67.0964 1310.51 65.7279 1310.69 64.2125C1310.93 62.2899 1313.31 64.4148 1313.35 65.232L1313.33 65.2375ZM1316.82 66.1157L1316.88 65.7916L1317.16 66.0105L1316.82 66.1157ZM1313.32 30.8525L1312.96 30.7998L1313.2 30.5505L1313.32 30.8525ZM1314.2 37.0275C1311.15 29.5255 1300.04 16.3194 1292.5 12.1501C1302.49 17.6048 1309.84 26.1817 1314.2 37.0275ZM1282.03 13.538C1284.98 15.0063 1287.07 15.6241 1289.7 17.7904C1290.07 17.1754 1290.5 16.9603 1290.99 17.145C1290.46 16.7571 1287.77 14.2805 1287.66 14.2167C1298.28 20.9403 1305.97 30.9993 1310 42.8839C1310.05 40.2023 1315.67 41.7536 1315.26 44.3522C1314.09 44.9506 1311.07 44.4879 1310.14 43.3105C1310.93 46.1556 1312.12 48.7902 1313.3 51.5023C1308.03 39.6094 1301.36 26.3396 1291.52 17.5965C1291.75 18.3194 1291.91 19.0611 1292 19.8128C1296.32 23.5887 1300.87 32.39 1302.79 37.7644C1301.12 33.077 1294.37 25.4448 1290.66 21.2201C1289.04 21.7437 1287.66 21.378 1286.36 23.1371C1293.07 31.534 1297.18 38.7922 1302.55 47.9951C1303.8 47.2832 1306.21 47.4106 1306.12 49.5243C1305.64 50.2862 1302.51 53.4554 1301.35 51.8542C1300.44 50.4044 1300.79 49.1476 1302.39 48.0838C1296.45 40.3269 1292.67 31.1156 1285.83 23.9821C1285.77 24.0901 1285.71 24.2009 1285.65 24.3145C1285.83 25.1382 1286.01 25.9629 1286.19 26.7884C1283.91 26.2122 1283.91 26.2122 1284.34 24.1622C1284.14 23.4197 1283.74 22.6773 1283.62 21.9459C1281.85 20.5414 1279.13 18.0425 1277.76 17.2946C1279.76 18.4027 1281.93 19.4055 1283.7 20.8544C1283.84 20.4941 1284.06 20.1717 1284.34 19.9153C1285.93 20.2754 1287.47 19.749 1289.03 19.7075C1289.1 19.5662 1289.17 19.4305 1289.23 19.2781C1286.99 16.5493 1285.16 15.1088 1282.03 13.538ZM1279.23 22.1703L1278.93 22.0678L1279.17 21.9182L1279.23 22.1703ZM1292.35 41.9863C1289.96 34.7835 1278.21 23.2092 1271.87 18.4027C1280.2 24.6553 1288.84 31.4065 1292.35 41.9863ZM1283.69 37.3876C1283.9 37.2681 1284.12 37.1679 1284.34 37.0884C1284.59 37.8669 1284.71 38.3046 1284.53 38.5539C1286.93 41.6788 1289.06 45.5933 1290.05 49.4468C1291.88 49.8706 1293.04 50.9317 1294.11 52.4304C1293.15 54.5164 1291.67 51.7517 1290.7 51.3915C1291.57 53.0343 1292.36 54.7159 1293.21 56.3615C1292.3 54.5497 1290.93 53.0371 1289.97 51.2502C1289.71 51.2502 1286.84 52.893 1286.1 52.001C1285.37 51.109 1288.17 48.8955 1288.94 49.1559C1288.76 48.7274 1288.55 48.311 1288.31 47.9093L1288.18 47.8815C1287.84 47.9065 1287.51 47.8813 1287.18 47.8068C1284.79 47.8732 1282.51 49.3914 1282.42 45.7456C1284.07 45.5406 1285.36 46.0227 1286.15 47.4078C1286.47 47.5967 1286.82 47.7394 1287.18 47.8317C1287.51 47.8207 1287.85 47.8458 1288.18 47.9065H1288.3C1286.54 44.837 1284.54 41.8478 1282.58 38.9002H1282.44C1282.46 38.8587 1282.48 38.8254 1282.5 38.7839C1278.74 33.1047 1274.17 25.8271 1269.49 21.68C1274.82 26.3673 1279.74 31.437 1283.69 37.3876ZM1281.47 43.7787L1282.45 45.0641L1281.47 43.7787ZM1281.42 44.8314C1281.57 45.0568 1281.71 45.2756 1281.85 45.488L1281.42 44.8314C1277.36 38.7368 1269.18 28.6279 1263.2 23.0319C1262.8 22.669 1262.41 22.306 1262 21.9459C1262.39 22.2839 1262.79 22.6459 1263.2 23.0319C1270.23 29.4867 1276.1 36.7061 1281.41 44.8314H1281.42ZM1276.7 48.6212C1279.33 52.7462 1281.95 56.8241 1284.58 60.5751C1281.78 56.6413 1279.22 52.6299 1276.7 48.6212C1271.71 40.8339 1266.68 32.872 1261.39 26.6277C1267.34 33.6228 1271.97 41.1192 1276.71 48.6212H1276.7ZM1263.55 44.258C1263.79 44.9028 1264.15 45.5008 1264.59 46.0254L1263.89 47.0311C1267.11 53.3806 1274.17 62.2678 1280.41 66.1324C1280.63 66.2681 1280.85 66.4094 1281.08 66.5313C1280.86 66.4066 1280.63 66.2709 1280.41 66.1324C1270.6 60.251 1263.01 50.3748 1258.38 39.7978C1258.76 40.6704 1261.99 44.0114 1263.02 45.4049C1263.19 45.0746 1263.39 44.7587 1263.62 44.4602L1263.55 44.258ZM1307.33 130.833C1305.66 131.348 1305.59 129.847 1305.66 128.786L1305.47 128.764C1306.36 123.068 1312.16 129.337 1307.33 130.833ZM1308.89 109.651C1308.49 108.787 1308.5 109.017 1309.21 108.64C1309.71 109.169 1309.61 109.504 1308.89 109.651ZM1312.04 129.412C1312.58 129.966 1312.46 130.32 1311.69 130.476C1311.16 129.924 1311.28 129.572 1312.04 129.412ZM1313.98 109.363C1313.92 109.339 1313.87 109.302 1313.82 109.254C1313.78 109.206 1313.74 109.149 1313.72 109.086C1314.14 108.676 1314.46 108.682 1314.68 109.103C1314.46 109.206 1314.23 109.294 1313.99 109.363H1313.98ZM1304.44 100.792C1304.83 102.23 1306.13 111.757 1306.05 111.939C1304.66 111.962 1303.79 111.153 1303.43 109.513C1302.38 106.224 1304.22 102.958 1302.68 99.6891C1301.83 99.1101 1300.82 97.5698 1300.72 96.567C1292.51 85.3556 1274.44 74.8478 1262.42 62.2151C1261.36 62.3841 1261.29 62.3066 1261.61 61.3453C1253.55 52.6022 1248.51 42.8257 1251.64 31.1046L1250.95 31.0602C1249.99 29.2484 1250.97 28.1265 1252.84 27.6943C1253.35 26.3455 1254.18 25.1413 1255.26 24.1871C1255.08 25.3529 1254.71 26.483 1254.18 27.5364C1255.01 27.5142 1255.85 27.5863 1256.66 27.5641C1256.49 26.7053 1256.22 25.8271 1256 24.9711C1256.31 26.1623 1256.56 26.5335 1257.14 27.5336C1257.26 27.5336 1257.38 27.5336 1257.49 27.5031C1257.57 25.7329 1260.34 25.7994 1260.3 27.9409C1259.71 29.0767 1258.84 29.3731 1257.69 28.8301C1260.57 37.0663 1266.19 42.5238 1270.74 49.6268C1266.18 42.5459 1258.93 39.0997 1257.11 29.0434C1256.58 29.7453 1256.06 30.4489 1255.54 31.1544C1255.07 31.5496 1254.63 31.6475 1254.22 31.4481C1256.56 37.6369 1257.52 51.8874 1263.77 55.4223C1256.01 50.9483 1254.28 38.9362 1253.84 31.2708L1253.8 31.2486L1253.18 31.2098C1248.78 52.677 1271.57 69.3681 1286.25 81.4688C1286.97 80.4216 1287.52 80.3819 1287.88 81.3497C1287.8 81.5458 1287.66 81.7134 1287.48 81.8302C1287.31 81.947 1287.1 82.0074 1286.89 82.0035C1294.71 88.2921 1301.03 98.9024 1310.98 102.149C1312.74 102.725 1323.94 103.518 1323.9 104.069C1323.74 107.055 1305.79 101.678 1304.45 100.792H1304.44ZM1321.77 112.463C1325.1 109.657 1329.01 104.734 1330.8 100.828C1329.76 100.952 1328.73 101.066 1327.69 101.18C1326.34 103.59 1325.22 106.058 1324.08 108.579C1329.48 96.5753 1333.05 81.8954 1331.62 68.7448C1331.12 68.7106 1330.63 68.643 1330.13 68.5425C1330.13 68.5619 1330.13 68.5813 1330.13 68.6007H1330.04C1330 69.6728 1329.3 70.1715 1328.18 70.2851C1328.28 68.4869 1328.67 66.7173 1329.35 65.0464C1329.38 64.9619 1329.39 64.8719 1329.38 64.7831C1329.37 64.6943 1329.34 64.6091 1329.29 64.5339C1331.29 62.9493 1331.29 62.9493 1333.65 64.3123L1335.66 64.2208L1336.67 65.9606L1334.25 65.944C1334.55 67.4274 1334.97 68.8859 1335.49 70.3072L1333.03 69.454C1332.83 69.2001 1332.57 69.0077 1332.27 68.8999C1334.21 79.2858 1332.91 91.8935 1327.7 101.168C1328.73 101.058 1329.78 100.944 1330.81 100.819C1335.06 91.5444 1339.11 80.8732 1339.37 71.1411C1338.9 88.015 1334.98 101.299 1321.77 112.463H1321.77ZM1336.57 59.3257C1336.54 59.0819 1336.51 58.8381 1336.47 58.5943C1336.51 58.8381 1336.54 59.0819 1336.57 59.3257C1336.64 60.0766 1336.68 60.8313 1336.68 61.5863C1336.61 61.7608 1336.54 61.9381 1336.47 62.1126L1336.68 61.5863C1336.64 60.8244 1336.64 60.0709 1336.57 59.3257H1336.57ZM1335.94 85.6963C1335.64 86.6714 1334.99 87.0621 1333.99 86.8681C1333.15 85.4959 1333.74 84.5097 1335.77 83.9094C1335.83 84.5051 1335.88 85.1034 1335.94 85.6963H1335.94ZM1334.55 43.7344C1331.62 43.6374 1328.56 44.812 1325.62 45.0669L1325.69 44.9727C1325.27 37.2352 1330.64 41.6484 1334.06 42.7066C1328.94 32.7003 1325.05 21.3115 1316.75 14.225C1316.48 13.9951 1316.2 13.7652 1315.92 13.538C1316.2 13.7624 1316.48 13.9923 1316.75 14.225C1329.53 24.8547 1332.75 38.396 1339.17 53.2227C1337.81 50.0092 1335.98 46.948 1334.55 43.7344Z" fill="#EDFFEF"/>
<path d="M1343.27 86.062C1342.46 87.7555 1341.8 89.5168 1341.29 91.3255C1341.34 91.334 1341.39 91.347 1341.43 91.3643C1342.01 89.6384 1342.45 87.6604 1343.27 86.062Z" fill="#EDFFEF"/>
<path d="M1239.5 219.782C1239.64 220.147 1239.81 220.5 1240 220.838C1240.07 220.915 1240.13 220.995 1240.2 221.073C1239.96 220.655 1239.73 220.22 1239.5 219.782Z" fill="#EDFFEF"/>
<path d="M1251.61 187.331L1251.77 186.907C1251.71 187.043 1251.66 187.185 1251.61 187.331Z" fill="#EDFFEF"/>
<path d="M1247.69 191.359C1247.77 191.215 1247.84 191.065 1247.92 190.924C1247.83 191.057 1247.76 191.209 1247.69 191.359Z" fill="#EDFFEF"/>
<path d="M1258.23 190.719C1258.28 190.536 1258.33 190.353 1258.39 190.165C1258.33 190.345 1258.28 190.53 1258.23 190.719Z" fill="#EDFFEF"/>
<path d="M1240.21 221.073C1240.14 220.996 1240.08 220.915 1240.02 220.838C1240.16 221.077 1240.32 221.301 1240.51 221.505C1240.15 220.796 1239.73 219.998 1239.27 219.126C1239.35 219.355 1239.43 219.573 1239.51 219.782C1239.73 220.22 1239.96 220.655 1240.21 221.073Z" fill="#EDFFEF"/>
<path d="M1239.27 219.126C1239.09 218.756 1238.9 218.382 1238.69 218.004C1238.94 218.611 1239.21 219.204 1239.51 219.782C1239.43 219.575 1239.35 219.356 1239.27 219.126Z" fill="#EDFFEF"/>
<path d="M1294.72 202.16C1294.76 202.011 1294.81 201.861 1294.86 201.711C1294.81 201.861 1294.76 202.008 1294.72 202.16Z" fill="#EDFFEF"/>
<path d="M1316.75 14.2251C1316.48 13.9924 1316.2 13.7624 1315.92 13.538C1316.2 13.7569 1316.48 13.9951 1316.75 14.2251Z" fill="#EDFFEF"/>
<path d="M1269.66 201.709C1269.72 201.515 1269.78 201.324 1269.85 201.135C1269.78 201.321 1269.72 201.512 1269.66 201.709Z" fill="#EDFFEF"/>
<path d="M1280.41 66.1324C1280.63 66.2709 1280.86 66.4094 1281.08 66.5313C1280.85 66.3928 1280.63 66.2681 1280.41 66.1324Z" fill="#EDFFEF"/>
<path d="M1268.1 210.13C1268.44 207.36 1268.83 204.39 1269.62 201.85C1268.83 204.55 1268.32 207.325 1268.1 210.13Z" fill="#EDFFEF"/>
<path d="M1276.71 48.6212C1279.24 52.6299 1281.79 56.6551 1284.59 60.5751C1281.95 56.8241 1279.33 52.7462 1276.71 48.6212Z" fill="#EDFFEF"/>
<path d="M1263.2 23.0319C1262.79 22.6477 1262.39 22.2857 1262 21.9459C1262.4 22.3061 1262.8 22.669 1263.2 23.0319Z" fill="#EDFFEF"/>
<path d="M1295.72 140.034C1296.04 140 1296.37 139.964 1296.69 139.922C1296.36 139.953 1296.04 139.992 1295.72 140.034Z" fill="#EDFFEF"/>
<path d="M1287.18 47.8317C1287.51 47.9066 1287.84 47.932 1288.18 47.9069C1287.85 47.8459 1287.51 47.8207 1287.18 47.8317Z" fill="#EDFFEF"/>
<path d="M1325.62 67.778C1325.92 68.6376 1326.41 69.4172 1327.05 70.0551C1326.41 69.4172 1325.92 68.6376 1325.62 67.778Z" fill="#EDFFEF"/>
<path d="M1336.57 59.3146C1336.55 59.0708 1336.52 58.827 1336.48 58.5833C1336.52 58.827 1336.55 59.0708 1336.57 59.3146Z" fill="#EDFFEF"/>
<path d="M1336.7 61.5752L1336.49 62.1016C1336.55 61.927 1336.62 61.7497 1336.7 61.5752Z" fill="#EDFFEF"/>
<path d="M1318.7 99.3788C1318.82 98.1711 1318.86 96.9569 1318.81 95.7442C1318.8 95.9852 1318.79 96.2235 1318.77 96.4672C1318.7 97.3454 1318.79 98.5117 1318.7 99.3788Z" fill="#EDFFEF"/>
<path d="M1325.52 67.4289C1325.55 67.5286 1325.58 67.6311 1325.61 67.7309C1325.59 67.6311 1325.55 67.5286 1325.52 67.4289Z" fill="#EDFFEF"/>
<path d="M1261.67 61.1763C1261.65 61.2372 1261.64 61.2926 1261.62 61.348C1261.89 61.6389 1262.15 61.927 1262.43 62.2179L1262.64 62.1847L1261.67 61.1763Z" fill="#EDFFEF"/>
<path d="M1325.44 67.0715C1325.44 67.1272 1325.47 67.1829 1325.48 67.2358C1325.47 67.1829 1325.45 67.1272 1325.44 67.0715Z" fill="#EDFFEF"/>
<path d="M1274.77 197.368C1275.01 197.422 1275.27 197.46 1275.52 197.481V197.428C1275.29 197.342 1275.05 197.269 1274.8 197.21C1274.79 197.262 1274.78 197.315 1274.77 197.368Z" fill="#EDFFEF"/>
<path d="M1294.32 122.289C1294.6 122.234 1294.86 122.167 1295.13 122.087C1294.7 122.032 1294.28 121.979 1293.85 121.938L1294.32 122.289Z" fill="#EDFFEF"/>
<path d="M1299.43 6.39895C1299.45 7.64836 1306.05 8.30215 1307.17 8.42405C1307.48 7.88502 1307.87 7.39869 1308.33 6.98349C1308.33 6.96967 1308.33 6.95575 1308.33 6.94193C1307.51 6.74524 1299.41 5.3213 1299.43 6.39895Z" fill="#EDFFEF"/>
<path d="M1241.88 138.762C1241.02 139.679 1230.28 152.137 1231.77 153.018C1232.36 153.372 1244.19 138.762 1245.13 137.834C1250.87 132.152 1258.51 126.234 1266.37 123.76C1266.58 123.259 1266.9 122.814 1267.32 122.464C1257.7 125.873 1248.99 131.45 1241.88 138.762Z" fill="#EDFFEF"/>
<path d="M1267.77 122.292L1268.26 123.123L1268.59 122.993C1269.14 122.802 1290.23 118.231 1290.19 118.724C1290.41 116.156 1269.04 121.782 1267.77 122.292Z" fill="#EDFFEF"/>
<path d="M1362.61 104.346C1360.8 106.038 1359.11 107.849 1357.55 109.768C1356.48 111.064 1362.99 106.241 1364.33 105.091L1362.68 104.518C1362.66 104.446 1362.63 104.39 1362.61 104.346Z" fill="#EDFFEF"/>
<path d="M1409.52 83.275C1404.11 80.9369 1397.5 81.0172 1391.87 82.4799C1379.22 85.7655 1371.71 95.9603 1362.61 104.332C1362.63 104.39 1362.66 104.446 1362.68 104.501L1364.33 105.077C1373.3 97.3842 1379.97 86.8626 1392.04 83.469C1396.3 82.2749 1401.02 81.9314 1405.35 83.0811C1406.72 83.444 1421.66 93.0099 1421.07 93.4809C1422.48 92.3616 1410.48 83.685 1409.52 83.275ZM1398.69 82.2971L1398.36 82.0201C1398.47 81.9397 1398.58 81.8012 1398.7 81.7874C1399.24 82.1512 1399.24 82.3211 1398.7 82.2971H1398.69Z" fill="#EDFFEF"/>
<path d="M1332.16 138.016C1331.01 138.163 1332.57 135.246 1332.95 134.927C1333.31 135.706 1330.43 118.029 1328.4 119.137C1327.2 119.799 1331.5 130.955 1331.02 133.625C1330.63 134.229 1329.83 135.711 1330.24 136.396C1329.43 138.471 1328.17 140.342 1326.55 141.877C1324.94 143.412 1323 144.573 1320.89 145.277C1320.26 145.615 1315.5 148.568 1314.5 147.494C1314.98 148.749 1315.52 149.987 1316.12 151.173C1325.25 149.303 1331.52 142.465 1336.26 134.387C1335.31 134.916 1333.06 137.911 1332.16 138.016Z" fill="#EDFFEF"/>
<path d="M1426.55 148.918C1426.5 148.877 1426.45 148.847 1426.39 148.829C1426.45 148.854 1426.5 148.884 1426.55 148.918Z" fill="#EDFFEF"/>
<path d="M1424.25 154.073C1424.77 153.879 1425.26 153.696 1425.72 153.519C1425.25 153.696 1424.76 153.881 1424.25 154.073Z" fill="#EDFFEF"/>
<path d="M1400.98 144.022C1397.27 144.577 1393.17 145.574 1389.44 145.685C1393.13 145.585 1398.15 144.826 1403.46 143.64C1402.64 143.771 1401.82 143.899 1400.98 144.022Z" fill="#EDFFEF"/>
<path d="M1396.07 154.658C1393.7 155.034 1391.07 155.708 1388.62 155.785C1390.95 155.713 1393.28 155.464 1395.57 155.043C1395.72 154.896 1395.89 154.767 1396.07 154.658Z" fill="#EDFFEF"/>
<path d="M1417.69 96.8994C1416.77 96.8994 1415.84 96.9523 1414.92 97.0414C1415.82 97.0331 1416.75 96.9969 1417.69 96.8994Z" fill="#EDFFEF"/>
<path d="M1348.29 130.11C1348.09 130.218 1347.88 130.329 1347.67 130.434C1347.88 130.318 1348.08 130.207 1348.29 130.11Z" fill="#EDFFEF"/>
<path d="M1426.4 148.829C1426.54 148.896 1426.66 148.992 1426.76 149.11C1426.86 149.228 1426.93 149.365 1426.98 149.513C1427.1 149.286 1426.95 149.053 1426.4 148.829Z" fill="#EDFFEF"/>
<path d="M1428.43 140.111L1429.13 139.82L1428.43 140.111Z" fill="#EDFFEF"/>
<path d="M1413.6 90.3366C1388.78 76.0889 1365.86 104.731 1350.16 120.176C1350.19 120.206 1350.23 120.234 1350.26 120.267C1350.28 120.899 1350.08 121.518 1349.7 122.026C1349.5 121.749 1349.3 121.472 1349.1 121.195C1343.09 127.065 1338.33 131.243 1335.48 131.262C1335.53 131.936 1335.38 132.609 1335.05 133.202L1335.1 133.179C1336.46 132.539 1348.25 123.711 1348.58 123.866C1359.44 112.175 1373.45 99.6614 1388.08 92.6443C1395.46 89.1066 1402.24 87.8405 1409.84 90.8131C1410.62 91.1233 1423.48 98.7251 1421.83 99.9219C1421.34 100.279 1418.14 97.2125 1417.73 96.8967H1417.69C1416.74 96.9936 1415.82 97.0296 1414.91 97.038C1408 97.6973 1400.97 100.509 1394.28 101.573C1396.87 101.163 1401.66 97.8829 1405.31 97.2817C1408.64 96.7277 1411.71 97.0657 1414.91 97.038C1415.84 96.9493 1416.77 96.8994 1417.69 96.8967H1417.73C1414.12 94.0721 1410 91.9612 1405.59 90.6773C1398.42 91.5084 1388.15 94.6666 1382.47 99.2653C1383.21 100.445 1382.94 101.331 1381.66 101.922C1379.84 101.631 1380.13 98.5838 1381.83 98.9301C1389.71 93.564 1395.88 91.043 1405.41 90.6192C1390.06 86.3169 1372.26 103.9 1361.92 113.059C1355.58 118.682 1349.4 124.644 1344.56 131.636C1343.36 133.434 1337.53 147.84 1339.25 147.408C1334.66 148.665 1343.83 129.633 1345.25 127.883C1343.3 129.681 1341.06 131.066 1338.95 132.628C1338.7 141.247 1324.41 151.189 1316.88 152.613C1324.99 167.451 1341.86 177.291 1360.95 180.203C1353.35 179.926 1345.45 177.986 1338.51 174.925C1337.9 174.648 1318.98 162.969 1319.97 162.162C1315.29 166.019 1346.11 178.92 1345.36 178.726C1355.62 181.397 1365.86 181.336 1376.34 181.039C1386.56 180.748 1396.68 180.402 1406.29 176.449C1412.8 173.773 1418.71 169.875 1423.34 164.553C1424.32 163.426 1431.05 154.303 1429.47 153.671C1430.15 153.948 1415.25 169.836 1414.6 170.307C1406.62 176.172 1397.49 178.646 1387.77 179.682C1401.38 177.067 1416.14 170.983 1423.67 158.73C1417.11 162.218 1408.28 165.628 1400.67 165.933C1405.54 165.719 1418.48 160.777 1423.68 158.688C1434.95 140.324 1434.4 102.263 1413.6 90.3366ZM1390.78 179.541L1391.38 179.967C1390.24 180.546 1390.02 179.668 1390.78 179.552V179.541ZM1427.01 149.871C1426.71 153.353 1406.9 156.519 1403.77 156.716C1406.87 156.528 1413.07 152.838 1417.02 152.006C1417.46 151.915 1426.31 150.735 1426.97 149.513C1426.93 149.365 1426.86 149.228 1426.76 149.11C1426.66 148.992 1426.53 148.896 1426.39 148.829C1426.95 149.053 1427.1 149.286 1426.97 149.513C1427.01 149.628 1427.03 149.75 1427.01 149.871ZM1398.35 154.544C1402.38 155.813 1393.96 156.655 1395.57 155.034C1393.28 155.459 1390.96 155.71 1388.63 155.785C1388.45 155.785 1388.27 155.785 1388.07 155.785H1388.63C1391.07 155.708 1393.71 155.034 1396.08 154.658C1395.89 154.767 1395.73 154.896 1395.57 155.043C1396.44 154.89 1397.34 154.716 1398.25 154.527C1398.08 154.476 1397.91 154.435 1397.74 154.403C1398.9 154.25 1400.03 154.073 1401.15 153.874C1409.55 151.86 1418.84 148.593 1424.79 145.662C1425.14 145.485 1425.5 145.311 1425.85 145.128C1425.51 145.305 1425.15 145.482 1424.79 145.662C1417.01 149.571 1409.63 152.372 1401.15 153.874C1400.17 154.109 1399.21 154.328 1398.25 154.527L1398.35 154.544ZM1397.24 161.982C1395.59 161.428 1395.57 161.384 1396.4 160.068C1396.91 160.583 1397.2 161.264 1397.24 161.982ZM1383.97 112.466C1384.8 112.397 1385.44 112.876 1386 113.552C1386.44 113.815 1386.87 114.092 1387.29 114.383C1387.34 114.997 1387.22 115.612 1386.94 116.164C1397.94 110.956 1409.87 109.283 1420.94 104.764C1417.6 106.097 1414.58 107.745 1411.13 108.895C1411.1 108.95 1411.05 109.006 1411.02 109.064C1410.61 109.312 1410.15 109.457 1409.67 109.488C1406.64 110.948 1403.27 111.549 1400.07 112.43C1398.68 112.815 1386.37 116.635 1386.35 116.585C1385.64 116.707 1385.43 115.461 1385.38 115.031C1385.59 114.853 1385.76 114.625 1385.87 114.368C1385.98 114.112 1386.03 113.833 1386 113.555C1385.35 113.155 1384.67 112.791 1383.97 112.466ZM1384.68 158.852L1383.85 160.038C1381.81 157.68 1384.49 158.026 1384.68 158.852ZM1401.44 118.211C1402.11 118.488 1402.3 119.018 1402.04 119.597C1401.55 120.666 1400.05 118.915 1401.44 118.211ZM1388.2 121.062L1388.01 121.217C1387.97 121.148 1387.89 121.073 1387.9 121.012C1387.91 120.951 1388.01 120.899 1388.07 120.843C1388.11 120.912 1388.15 120.968 1388.2 121.062ZM1385.37 119.043C1385.43 118.882 1387.22 117.355 1387.22 118.979C1386.97 119.196 1386.65 119.323 1386.32 119.339C1385.99 119.355 1385.67 119.259 1385.4 119.067L1384.98 119.259L1385.37 119.043ZM1405.49 121.702C1411.44 119.918 1417.66 119.156 1423.4 116.799C1412.02 121.508 1399.5 126.376 1387.04 127.683C1391.96 127.162 1399.94 123.392 1405.49 121.702ZM1410.1 129.772C1410.89 129.938 1411.1 130.379 1411.12 130.913C1416.1 128.766 1421.24 128.42 1426.1 125.763C1415.28 131.703 1402.64 136.944 1389.96 137.371C1394.07 137.238 1402.22 133.88 1406.76 132.42C1408.03 132.01 1409.26 131.639 1410.49 131.168C1410.12 130.819 1410.12 130.293 1410.1 129.772ZM1413.09 128.354C1413.33 128.215 1413.58 128.098 1413.84 128.004L1413.88 128.041C1412.94 129.678 1413.28 128.221 1413.09 128.354ZM1389.44 145.676C1393.17 145.574 1397.27 144.585 1400.98 144.014C1401.82 143.889 1402.64 143.758 1403.46 143.623C1412.38 141.626 1422.13 138.415 1427.78 135.063C1419.78 139.839 1412.38 142.128 1403.46 143.623C1398.15 144.818 1393.13 145.577 1389.44 145.676ZM1400.21 150.516C1398.68 150.128 1398.5 149.591 1399.69 148.904C1401.27 149.303 1401.44 149.84 1400.21 150.516ZM1396.84 126.353L1396.86 126.373L1396.84 126.353ZM1388.25 139.393C1388.13 139.426 1387.97 139.521 1387.91 139.485C1387.85 139.449 1387.81 139.288 1387.77 139.18C1388.05 138.975 1388.21 139.05 1388.25 139.393ZM1403.85 147.496C1409.5 147.627 1422.13 142.709 1428.43 140.111L1429.13 139.82L1428.43 140.111C1420.65 143.366 1412.79 147.693 1403.85 147.496ZM1430.29 130.841C1429.78 131.082 1429.24 131.34 1428.71 131.562C1421.35 134.858 1412.68 137.878 1404.47 137.404C1409.5 137.709 1422.42 133.637 1427.93 131.864C1428.19 131.78 1428.45 131.681 1428.71 131.573C1429.23 131.336 1429.76 131.092 1430.29 130.841ZM1405.5 128.741C1405.69 128.8 1405.7 128.927 1405.52 129.121C1405.42 129.077 1405.26 129.052 1405.24 128.982C1405.22 128.913 1405.28 128.847 1405.33 128.769C1404.12 128.967 1402.91 129.102 1401.68 129.174C1406.99 128.869 1421.5 123.677 1426.88 121.068C1420.38 124.157 1412.92 127.511 1405.49 128.741H1405.5ZM1425.34 111.169C1425.57 111.042 1425.81 110.937 1426.06 110.853V110.831H1426.08H1426.05C1425.22 112.446 1425.49 111.059 1425.32 111.169H1425.34ZM1423.16 111.513C1423.44 111.473 1423.72 111.418 1423.99 111.347L1426.78 110.405C1425.93 110.709 1424.94 111.108 1423.99 111.347C1418.87 113.07 1413.37 114.843 1407.9 115.738C1407.92 115.763 1407.92 115.794 1407.92 115.823C1407.81 116.674 1405.44 117.366 1405.36 116.358C1405.35 116.258 1405.39 116.159 1405.45 116.081C1404.13 116.231 1402.8 116.314 1401.47 116.33C1403.01 116.275 1404.54 116.071 1406.03 115.721C1406.26 115.644 1406.5 115.592 1406.74 115.566C1412 114.366 1418.48 112.122 1423.14 111.513H1423.16ZM1421.61 101.299C1413.33 103.177 1405.23 106.601 1397.02 108.551C1402.02 107.388 1407.64 102.326 1414.11 101.939C1416.78 101.778 1418.97 101.875 1421.61 101.299ZM1394.54 103.975H1394.55C1400.38 101.304 1406.58 100.747 1412.82 99.8194C1407.05 100.673 1400.85 103.598 1395.2 105.199C1394.43 106.828 1392.56 108.579 1390.94 106.942C1387.97 108.327 1385.06 110.299 1382.08 111.577C1383.7 110.881 1388.36 107.288 1390.48 105.853C1390.57 104.681 1393.73 103.792 1394.54 103.978V103.975ZM1378.19 107.465C1386.58 97.4535 1397.81 95.7221 1409.85 93.866C1397.19 95.7775 1387.39 101.609 1377.44 109.006C1376.75 108.538 1377 108.025 1378.19 107.465ZM1381.15 115.222C1384.3 116.552 1377.99 119.466 1377.51 119.574C1375.58 119.987 1377.59 113.724 1381.15 115.22V115.222ZM1379.28 139.834C1379.2 140.404 1377.61 140.875 1377.55 140.191C1377.52 139.615 1379.33 139.476 1379.28 139.831V139.834ZM1361.97 116.167L1363.21 116.663L1362.59 117.281C1362.4 117.158 1362.24 116.992 1362.13 116.796C1362.01 116.601 1361.95 116.381 1361.94 116.156L1361.97 116.167ZM1370.1 124.084C1368.29 124.309 1367.4 124.639 1366.98 122.53L1363.07 121.865C1363.42 120.912 1366.03 121.622 1366.65 121.057C1366.34 120.249 1366.22 119.387 1366.28 118.527C1361.64 120.998 1357.39 124.364 1352.96 127.284C1353.21 127.389 1353.3 127.736 1353.08 128.511C1352.4 128.744 1351.78 128.788 1351.33 128.337C1350.32 128.96 1349.31 129.548 1348.27 130.096C1348.07 130.207 1347.86 130.318 1347.66 130.42C1347.86 130.315 1348.07 130.204 1348.27 130.096C1349.29 129.528 1350.27 128.901 1351.21 128.218C1351.14 128.132 1351.08 128.039 1351.03 127.941C1351.49 127.67 1351.97 127.448 1352.48 127.279C1356.76 124.026 1361.19 119.874 1366.49 117.691C1367.6 114.003 1371.06 114.089 1372.74 117.414C1372.97 117.037 1373.23 116.671 1373.47 116.305C1376.13 116.677 1373.94 119.306 1373.35 119.86C1372.44 119.217 1372.15 118.99 1372.23 118.574C1365.47 120.106 1375.08 123.115 1375.04 122.81C1375.19 123.86 1371.06 123.96 1370.81 123.99C1370.9 124.229 1370.99 124.464 1371.08 124.702L1370.81 123.99L1370.46 124.032C1362.97 130.85 1351.85 131.997 1343.61 135.484C1352 131.96 1362.52 128.933 1370.11 124.084H1370.1ZM1358.09 128.636C1358.08 128.099 1358.26 127.576 1358.61 127.165C1358.26 127.576 1358.08 128.099 1358.09 128.636C1358.09 128.722 1358.09 128.808 1358.09 128.897C1357.46 129.325 1356.75 129.608 1356 129.728C1356.75 129.608 1357.46 129.325 1358.09 128.897C1358.1 128.808 1358.1 128.725 1358.1 128.636H1358.09ZM1362.77 122.854C1362.77 122.81 1363.12 122.771 1363.15 122.769C1363.42 123.291 1363.31 123.546 1362.82 123.533C1362.79 123.308 1362.77 123.082 1362.78 122.854H1362.77ZM1365.76 123.184C1365.8 123.108 1365.86 123.041 1365.92 122.988C1365.99 122.935 1366.07 122.897 1366.16 122.877C1366.87 123.553 1365.63 123.738 1365.76 123.184ZM1372.45 124.683C1372.17 124.534 1371.84 124.488 1371.52 124.553C1371.84 124.483 1372.17 124.524 1372.45 124.669V124.683ZM1363.89 134.933L1362.62 134.725C1362.38 132.819 1363.78 134.265 1363.89 134.911V134.933ZM1357.59 132.977C1357.57 132.976 1357.54 132.976 1357.52 132.977C1357.22 133.443 1353.46 136.833 1353.81 134.069C1353.91 133.26 1357.05 132.961 1357.52 132.977C1357.53 132.963 1357.54 132.948 1357.55 132.933L1357.59 132.977ZM1376.36 132.506C1364.9 136.21 1353.2 138.144 1342.14 140.554C1353.47 138.061 1365.39 136.016 1376.36 132.484V132.506ZM1375.4 142.105C1375.34 143.083 1373.82 142.019 1374.92 141.463C1375.06 141.497 1375.18 141.577 1375.27 141.689C1375.36 141.802 1375.4 141.941 1375.4 142.083V142.105ZM1341.81 149.366L1341.85 149.28C1341.75 149.508 1341.72 149.756 1341.75 150.001C1341.71 149.898 1341.69 149.786 1341.7 149.676C1341.71 149.565 1341.75 149.459 1341.81 149.366ZM1365.86 173.648C1364.65 173.205 1364.17 172.276 1364.39 170.861C1364.45 170.584 1365.16 166.67 1365.65 165.717C1363.55 165.625 1361.44 165.218 1359.35 164.983C1364.04 163.52 1351.33 167.545 1355.41 164.459C1347.27 163.658 1338.8 159.472 1331.49 156.018C1331.16 156.4 1331.34 157.01 1331.95 158.14C1331.76 159.162 1331.2 160.123 1331.02 161.146C1340.92 169.457 1355.63 176.795 1368.74 176.961C1353.37 176.684 1342.82 172.1 1331.02 162.342C1331.02 162.376 1331.02 162.403 1331.04 162.437C1330.73 162.42 1330.42 162.42 1330.11 162.437C1329.79 161.228 1329.02 160.189 1327.95 159.531C1327.07 158.757 1326.27 157.905 1325.54 156.987C1325.4 156.805 1327.42 158.134 1327.82 158.531C1328.1 154.652 1325.92 153.267 1321.63 153.849V152.971C1323.47 153.266 1325.33 153.373 1327.19 153.289L1326.08 151.849C1325.89 151.491 1327.9 153.076 1328.15 153.27C1330.32 153.228 1332.5 153.394 1334.67 153.458L1335.74 154.104C1335.7 154.658 1335.67 155.212 1335.63 155.766L1334.8 155.877C1334.48 155.664 1334.12 155.521 1333.74 155.458C1333.36 155.395 1332.97 155.413 1332.6 155.511C1338.32 158.148 1344.4 160.292 1350.61 161.536C1351.55 160.628 1352.71 160.337 1354.06 160.664C1353.87 161.148 1353.64 161.62 1353.38 162.077C1355.61 162.561 1357.56 163.428 1359.82 163.298C1360.57 163.24 1361 163.489 1361.09 164.052C1362.66 164.426 1364.4 165.057 1366.01 165.16C1366.98 164.127 1369.35 164.717 1370.4 165.29C1369.03 165.332 1371.99 165.251 1372.57 165.271C1371.89 165.264 1371.21 165.302 1370.54 165.384C1371.16 165.869 1366.01 173.673 1365.86 173.648ZM1359.16 158.614C1359.24 158.668 1359.3 158.74 1359.35 158.824C1358.42 160.323 1356.94 157.771 1359.16 158.614ZM1358.57 157.988L1358.94 157.965L1358.79 158.256L1358.57 157.988ZM1368.01 160.716C1367.07 160.888 1366.44 160.439 1366.12 159.395C1366 157.442 1369.71 159.855 1368.03 160.716H1368.01ZM1371.02 154.489L1371.3 154.724C1371.3 155.278 1371.3 155.841 1371.32 156.414C1368.2 156.528 1366.08 159.074 1364.76 155.583C1364.87 155.297 1365.03 155.035 1365.24 154.813C1359.37 155.114 1353.48 154.624 1347.74 153.356C1346.65 153.854 1345.57 154.384 1344.51 154.946V152.73C1340.56 151.674 1336.18 151.106 1332.43 149.455C1334.6 150.411 1341.78 151.535 1344.82 151.765L1345.12 150.901C1345.53 150.973 1348.18 151.159 1348.3 152.3C1350.3 152.682 1352.45 152.652 1354.48 152.874C1354.96 151.995 1356.73 152.278 1356.1 152.962C1359.87 152.998 1363.55 153.516 1367.29 153.674C1367.72 153.528 1368.12 153.342 1368.51 153.12C1369.15 153.269 1369.75 153.552 1370.28 153.951C1372.55 154.045 1374.88 153.289 1377.11 153.007C1375.02 153.236 1373.12 154.228 1371.02 154.489ZM1360.17 150.887C1360.24 149.873 1363.25 149.397 1363.7 150.297C1364.15 151.198 1360.12 151.693 1360.17 150.887ZM1377.67 148.798C1377.45 148.774 1377.41 148.679 1377.56 148.521C1377.77 148.538 1377.8 148.632 1377.66 148.79L1377.67 148.798ZM1364.44 147.075C1364.17 147.779 1362.88 148.023 1362.81 147.153C1356.89 147.519 1349.56 147.962 1343.53 147.153C1343.21 147.111 1342.89 147.067 1342.58 147.014C1342.89 147.067 1343.21 147.111 1343.53 147.153C1353.55 148.424 1370.29 145.477 1380.38 143.551C1375.04 144.585 1369.99 146.71 1364.43 147.067L1364.44 147.075ZM1382.88 117.33C1382.64 117.585 1382.34 117.773 1382 117.879C1381.66 117.984 1381.31 118.002 1380.96 117.932C1381.56 117.63 1382.21 117.424 1382.87 117.322L1382.88 117.33ZM1381.85 125.999C1381.39 123.686 1381.66 128.462 1381.85 125.999V125.999ZM1387.01 175.172C1387.64 174.777 1387.97 174.937 1388.01 175.654C1387.2 175.859 1387.32 176.05 1387 175.163L1387.01 175.172ZM1400.89 169.659C1406.97 167.72 1414.8 166.836 1419.44 162.32C1410.93 170.811 1392.82 174.917 1380.97 175.393C1386.34 175.169 1395.04 171.446 1400.9 169.651L1400.89 169.659ZM1382.46 165.678C1392.45 167.509 1413.34 158.198 1424.25 154.081C1424.74 153.897 1425.23 153.712 1425.71 153.527C1425.25 153.696 1424.76 153.879 1424.25 154.081C1411.93 158.799 1395.91 168.313 1382.46 165.67L1382.46 165.678Z" fill="#EDFFEF"/>
<path d="M1397.74 154.394C1397.92 154.427 1398.09 154.468 1398.26 154.519C1399.21 154.32 1400.18 154.101 1401.16 153.865C1400.04 154.065 1398.9 154.242 1397.74 154.394Z" fill="#EDFFEF"/>
<path d="M1343.53 147.145C1343.2 147.103 1342.88 147.059 1342.57 147.006C1342.88 147.059 1343.2 147.103 1343.53 147.145Z" fill="#EDFFEF"/>
<path d="M1358.11 128.897C1358.11 128.808 1358.11 128.722 1358.11 128.636C1358.1 128.725 1358.1 128.808 1358.11 128.897Z" fill="#EDFFEF"/>
<path d="M1428.69 131.562C1429.23 131.34 1429.76 131.082 1430.27 130.841C1429.75 131.083 1429.23 131.323 1428.69 131.562Z" fill="#EDFFEF"/>
<path d="M1423.98 111.347C1424.93 111.108 1425.92 110.709 1426.77 110.405L1423.98 111.347Z" fill="#EDFFEF"/>
<path d="M1386 113.552C1385.45 112.876 1384.8 112.397 1383.97 112.466C1384.67 112.792 1385.35 113.157 1386 113.557V113.552Z" fill="#EDFFEF"/>
<path d="M1424.79 145.654C1425.16 145.474 1425.52 145.297 1425.86 145.119C1425.5 145.302 1425.15 145.477 1424.79 145.654Z" fill="#EDFFEF"/>
<path d="M1352.49 127.287C1352.07 127.608 1351.65 127.919 1351.23 128.218C1351.26 128.259 1351.3 128.299 1351.34 128.337C1351.89 127.993 1352.44 127.643 1352.97 127.284C1352.82 127.235 1352.65 127.236 1352.49 127.287Z" fill="#EDFFEF"/>
<path d="M1405.31 128.769L1405.49 128.742C1405.44 128.725 1405.39 128.715 1405.34 128.711C1405.33 128.732 1405.32 128.751 1405.31 128.769Z" fill="#EDFFEF"/>
<path d="M1406.73 115.56C1406.49 115.616 1406.26 115.666 1406.02 115.715C1405.8 115.778 1405.6 115.903 1405.44 116.076C1406.26 115.985 1407.07 115.872 1407.89 115.738C1407.79 115.555 1407.27 115.497 1406.73 115.56Z" fill="#EDFFEF"/>
<path d="M1323.06 116.743C1323.49 116.466 1325.2 133.016 1324.89 133.808C1323.65 137.221 1320.67 139.748 1317.56 141.344C1316.96 141.651 1305.16 143.837 1305.21 143.61C1304.59 146.629 1320.98 140.648 1322.88 138.623C1326.7 134.592 1327.95 129.797 1326.8 124.345C1326.6 123.4 1324.12 116.076 1323.06 116.743Z" fill="#EDFFEF"/>
</g>
<defs>
<clipPath id="clip0_46_9">
<rect width="209" height="236" fill="white" transform="translate(1222 6)"/>
</clipPath>
</defs>
</svg>
