<svg width="22" height="23" viewBox="0 0 22 23" fill="none" xmlns="http://www.w3.org/2000/svg">
<path d="M21.4919 18.0449C21.4908 18.0437 21.4895 18.0424 21.4882 18.0411C21.4598 18.0123 21.4082 17.9683 21.3235 17.9092C21.1544 17.7912 20.8977 17.6435 20.5422 17.4658L20.528 17.4587L20.5144 17.4508C20.3234 17.3397 20.0472 17.1865 19.6836 16.9888C19.3174 16.7898 18.9843 16.6061 18.685 16.4378C18.384 16.269 18.1014 16.105 17.8368 15.9463L17.8144 15.9329L17.7936 15.9172C17.762 15.8935 17.6428 15.8099 17.4193 15.6551C17.2105 15.5111 17.0496 15.415 16.931 15.3577L17.1485 14.9075M21.4919 18.0449L5.17628 10.5891C5.23067 10.6772 5.27209 10.7448 5.30092 10.7924C5.31542 10.8164 5.32599 10.8341 5.33315 10.8462C5.3353 10.8499 5.33686 10.8526 5.33792 10.8545M21.4919 18.0449C21.4924 18.0477 21.4929 18.0511 21.4935 18.055C21.4971 18.08 21.5001 18.119 21.5 18.1752V18.1764C21.5 18.4039 21.457 18.7296 21.3564 19.1663L21.3563 19.1667C21.2553 19.6068 21.1547 19.9289 21.0581 20.1474L21.058 20.1474L21.0544 20.1561C20.9856 20.3202 20.8325 20.5293 20.5468 20.7778C20.2645 21.0234 19.8753 21.2878 19.3691 21.5688C18.4519 22.0664 17.5648 22.3047 16.7032 22.3047C16.4446 22.3047 16.1939 22.2876 15.951 22.2548C15.7135 22.2219 15.4372 22.1624 15.1197 22.073C14.7889 21.9797 14.5546 21.9077 14.4097 21.8562L14.4096 21.8562C14.2528 21.8005 13.9675 21.695 13.5505 21.5387C13.1457 21.3863 12.8821 21.2892 12.7728 21.2527C11.7829 20.8983 10.9058 20.4811 10.1395 20.0032L10.1376 20.002C8.84498 19.2038 7.49739 18.1072 6.09556 16.7045C4.69379 15.3017 3.59788 13.953 2.80045 12.6596L2.79925 12.6577C2.32144 11.8905 1.90447 11.0131 1.55058 10.0223C1.5142 9.91401 1.41697 9.65012 1.26508 9.24436L1.26501 9.24419C1.1086 8.82682 1.00333 8.5416 0.947849 8.38498L21.4919 18.0449ZM17.1485 14.9075L16.9317 15.358C16.8391 15.3135 16.7651 15.2986 16.7057 15.2982C16.7025 15.2988 16.6693 15.3041 16.5996 15.3439C16.516 15.3916 16.4054 15.4743 16.2669 15.6059C15.975 15.8837 15.7073 16.1854 15.464 16.5121L15.4639 16.5122C15.1905 16.879 14.8998 17.2191 14.5921 17.5329L14.5919 17.5331C14.4299 17.6981 14.2657 17.8393 14.0999 17.942C13.9381 18.0423 13.7387 18.1284 13.5163 18.1284C13.3381 18.1284 13.1575 18.0807 12.9917 18.0196L12.9907 18.0193C12.8431 17.9645 12.7186 17.9132 12.6237 17.8666L12.6183 17.864L12.6183 17.864C12.5244 17.8165 12.3834 17.7334 12.206 17.6236M17.1485 14.9075C16.9975 14.8348 16.849 14.7982 16.7031 14.7982C16.4948 14.7982 16.2346 14.9468 15.9222 15.2437L18.094 15.5176C18.0524 15.4863 17.9222 15.3952 17.7035 15.2437C17.4845 15.0927 17.2998 14.9806 17.1485 14.9075ZM12.206 17.6236C12.206 17.6235 12.206 17.6235 12.2059 17.6235L12.4692 17.1986L12.2068 17.6241C12.2066 17.6239 12.2063 17.6237 12.206 17.6236ZM12.206 17.6236C12.1179 17.5692 12.0504 17.5279 12.0028 17.499C11.9788 17.4845 11.9611 17.4738 11.9488 17.4666C11.9448 17.4642 11.9419 17.4625 11.94 17.4615M11.94 17.4615L11.9475 17.4652C11.9412 17.4621 11.9371 17.4598 11.9371 17.4598C11.9371 17.4598 11.938 17.4603 11.94 17.4615ZM11.94 17.4615L11.9384 17.4607L11.9295 17.4557C10.4669 16.6436 9.20443 15.7096 8.14662 14.6516L8.14646 14.6514C7.08902 13.5928 6.15552 12.3296 5.34414 10.8659L5.33883 10.8563L5.33792 10.8545M5.33792 10.8545C5.33922 10.8567 5.33978 10.8577 5.33979 10.8577C5.33979 10.8577 5.33732 10.8533 5.33394 10.8465L5.33792 10.8545ZM5.26689 8.2029L5.26696 8.20283C5.58058 7.89462 5.92086 7.60364 6.28704 7.33028L6.28719 7.33017C6.61348 7.0868 6.91486 6.81898 7.19226 6.52699C7.32395 6.38824 7.40677 6.2774 7.45443 6.19374C7.49467 6.12311 7.49968 6.08978 7.50019 6.08705C7.49979 6.02731 7.48496 5.95325 7.44051 5.86104L7.44039 5.86079C7.38335 5.7423 7.28742 5.58142 7.14337 5.37265C6.98954 5.14989 6.90505 5.02948 6.88079 4.99701L6.86555 4.97662L6.85246 4.95478C6.69359 4.68974 6.52994 4.40681 6.36115 4.10629L5.26689 8.2029ZM5.26689 8.2029C5.10206 8.36495 4.96093 8.52922 4.85827 8.69503C4.75804 8.85691 4.67203 9.05635 4.67203 9.27874C4.67203 9.45672 4.71954 9.63722 4.78113 9.80387C4.8351 9.9499 4.88677 10.0769 4.93548 10.1743L5.26689 8.2029ZM5.81061 3.10698L5.81057 3.10691C5.61333 2.7434 5.45984 2.46674 5.34868 2.27486L5.34094 2.26149L5.33403 2.24766C5.15637 1.89197 5.00873 1.63505 4.89081 1.46581C4.83175 1.38105 4.78772 1.32933 4.75902 1.30093C4.75772 1.29965 4.75649 1.29845 4.75533 1.29733C4.75258 1.29685 4.74934 1.29633 4.74556 1.29578C4.72036 1.29217 4.68126 1.28906 4.62528 1.28906C4.39798 1.28906 4.07252 1.33212 3.63587 1.43271L3.63566 1.43276C3.19629 1.53378 2.8741 1.63471 2.65494 1.73135L2.64688 1.7349L2.64685 1.73483C2.48322 1.80356 2.27442 1.95657 2.02602 2.24262C1.78058 2.52525 1.51626 2.91479 1.23531 3.42147C0.738019 4.33912 0.5 5.22681 0.5 6.08926C0.5 6.34881 0.516817 6.59969 0.550038 6.8422L5.81061 3.10698ZM5.81061 3.10698C6.00936 3.47313 6.19272 3.80647 6.36113 4.10625L5.81061 3.10698ZM0.731431 7.67386L0.731481 7.67404C0.824519 8.00522 0.896463 8.23987 0.947835 8.38493L0.731431 7.67386ZM0.731431 7.67386C0.642123 7.35642 0.582631 7.07982 0.550048 6.84227L0.731431 7.67386ZM21.5037 18.058C21.5049 18.0595 21.5053 18.0602 21.5053 18.0601C21.5052 18.0601 21.5047 18.0594 21.5037 18.058ZM4.74209 1.28541C4.74067 1.28443 4.73996 1.28385 4.73996 1.28381C4.73996 1.28377 4.74067 1.28427 4.74209 1.28541ZM4.93565 10.1747C4.98361 10.2708 5.06782 10.4134 5.17621 10.589L4.93565 10.1747Z" fill="#78C081" stroke="#577A5B"/>
</svg>
