<svg width="17" height="17" viewBox="0 0 17 17" fill="none" xmlns="http://www.w3.org/2000/svg">
<path d="M7.67428 9.12256C5.3065 11.3117 2.05425 10.9146 0.708136 8.8142C-1.02694 6.10684 1.82341 2.32591 4.36874 5.18985C5.10959 6.02125 6.09092 7.93919 7.6775 7.72929L7.67428 9.12256Z" fill="#D7FFDB"/>
<path d="M9.12437 9.3278C11.3114 11.6961 10.9143 14.9508 8.81608 16.2972C6.10936 18.0327 2.32933 15.18 5.19099 12.6341C6.02383 11.8947 7.93968 10.9131 7.73147 9.32617L9.12437 9.3278Z" fill="#9DFF94"/>
<path d="M12.6343 11.8108C11.8951 10.9778 10.9137 9.0615 9.32715 9.2714L9.33037 7.87817C11.6981 5.68902 14.9504 6.08616 16.2965 8.18653C18.0316 10.8923 15.1796 14.6748 12.6343 11.8108Z" fill="#D7FFDB"/>
<path d="M7.87885 7.67295C5.69022 5.30461 6.0889 2.04995 8.18713 0.703554C10.8939 -1.03193 14.6739 1.82073 11.8106 4.36666C10.9794 5.10606 9.06357 6.08762 9.27179 7.67458L7.87885 7.67295Z" fill="#9DFF94"/>
<path d="M8.47442 10.3197C9.43705 10.3197 10.2174 9.53913 10.2174 8.57628C10.2174 7.61343 9.43705 6.83289 8.47442 6.83289C7.5118 6.83289 6.73145 7.61343 6.73145 8.57628C6.73145 9.53913 7.5118 10.3197 8.47442 10.3197Z" fill="white"/>
<path d="M0.171145 7.03838C0.269228 7.04211 0.351785 6.96708 0.356109 6.86922C0.406126 5.74577 1.04418 4.74691 1.90767 4.44036C2.67153 4.16927 3.49851 4.47749 4.23674 5.30814C4.74119 5.87465 5.35755 6.95237 6.23604 7.53366C6.31764 7.58759 6.4276 7.56529 6.48155 7.48364C6.53553 7.40205 6.5132 7.29207 6.43153 7.23807C5.61734 6.69921 5.01693 5.65174 4.50142 5.0725C3.36754 3.79684 2.31596 3.91938 1.78914 4.10637C0.793281 4.46001 0.058352 5.58959 0.0021326 6.85348C-0.00222742 6.95123 0.0733817 7.03406 0.171145 7.03838Z" fill="#78C081"/>
<path d="M6.38489 9.82735C4.77675 10.6863 2.91328 10.5885 1.63715 9.5789C1.56033 9.51791 1.44892 9.53149 1.38834 9.60798C1.32762 9.68476 1.34059 9.79621 1.41741 9.85689C2.17814 10.4589 3.12831 10.764 4.11704 10.764C4.93034 10.764 5.7698 10.5575 6.55163 10.1401C6.63795 10.094 6.67066 9.98668 6.62447 9.90033C6.57846 9.81395 6.4707 9.78114 6.38489 9.82735Z" fill="#78C081"/>
<path d="M0.411867 8.25106C0.323107 8.29248 0.284894 8.39788 0.326226 8.48649C0.429165 8.70673 0.557378 8.92243 0.696969 9.11032C0.755138 9.18859 0.866018 9.20538 0.944888 9.14688C1.02344 9.0886 1.03971 8.97767 0.981399 8.89915C0.855809 8.73012 0.740215 8.53557 0.647308 8.33652C0.606012 8.24812 0.500449 8.20989 0.411867 8.25106Z" fill="#78C081"/>
<path d="M8.9126 16.4468C10.7993 15.2349 11.3233 12.6489 10.1316 10.4316C10.0853 10.3453 9.97765 10.3131 9.89165 10.3594C9.80548 10.4058 9.77315 10.5133 9.81952 10.5995C10.9228 12.6521 10.4507 15.0377 8.72143 16.1485C7.27628 17.0745 5.48562 16.6144 4.72024 15.6034C4.06507 14.7381 4.28548 13.6779 5.31002 12.7673C5.8631 12.2746 6.88565 11.6863 7.47851 10.8502C7.53508 10.7703 7.5164 10.6597 7.43647 10.603C7.35689 10.5464 7.24597 10.5653 7.18958 10.6451C6.63777 11.4234 5.6333 12.0047 5.07454 12.5024C3.6877 13.735 3.8363 15.023 4.43769 15.8174C5.34011 17.0091 7.35706 17.4438 8.9126 16.4468Z" fill="#78C081"/>
<path d="M15.6037 12.2821C14.7378 12.9383 13.6772 12.7178 12.766 11.693C12.2659 11.1289 11.6552 10.0649 10.7892 9.48059C10.7077 9.42591 10.598 9.44719 10.5432 9.52845C10.4885 9.60961 10.51 9.71977 10.5909 9.77444C11.3936 10.3159 11.994 11.3564 12.5011 11.9284C13.6491 13.2197 14.9282 13.2387 15.8177 12.5646C16.9539 11.7033 17.4777 9.7003 16.4462 8.09125C15.2262 6.1882 12.5406 5.67657 10.3317 6.92689C10.2464 6.97507 10.2165 7.08314 10.2648 7.16837C10.3129 7.2535 10.4212 7.28371 10.5061 7.23524C12.5511 6.07815 15.0293 6.53769 16.148 8.28246C17.0736 9.72654 16.6139 11.5164 15.6037 12.2821Z" fill="#78C081"/>
<path d="M8.09147 0.554373C6.19805 1.76994 5.68264 4.4499 6.9183 6.6556C6.96594 6.74101 7.07384 6.77129 7.15949 6.7236C7.24477 6.67574 7.27522 6.56777 7.2273 6.48236C6.08316 4.43997 6.54685 1.96714 8.28263 0.852698C9.72778 -0.0731935 11.5184 0.386313 12.2836 1.39694C12.939 2.2621 12.7186 3.32265 11.694 4.23393C11.1275 4.73847 9.99594 5.3871 9.42932 6.29437C9.37742 6.37734 9.40266 6.48672 9.48554 6.53856C9.56859 6.59057 9.67777 6.56522 9.72966 6.48215C10.256 5.63954 11.3402 5.02357 11.9295 4.49872C13.3163 3.26528 13.1677 1.97711 12.5662 1.1829C11.7051 0.046186 9.70148 -0.477637 8.09147 0.554373Z" fill="#78C081"/>
<path d="M8.47378 10.497C9.5326 10.497 10.394 9.63534 10.394 8.57635C10.394 7.51729 9.53263 6.65564 8.47378 6.65564C7.41515 6.65564 6.55371 7.51725 6.55371 8.57635C6.55375 9.63534 7.41515 10.497 8.47378 10.497ZM8.47378 7.01009C9.33728 7.01009 10.0397 7.71275 10.0397 8.57638C10.0397 9.44002 9.33728 10.1426 8.47378 10.1426C7.61047 10.1426 6.90804 9.43998 6.90804 8.57638C6.90804 7.71279 7.61047 7.01009 8.47378 7.01009Z" fill="#78C081"/>
</svg>
